<?xml version="1.0" encoding="UTF-8"?><svg id="a" xmlns="http://www.w3.org/2000/svg" width="814.6338" height="150" viewBox="0 0 814.6338 150"><defs><style>.b{fill:#f66;}.c{fill:#c33;}</style></defs><path class="c" d="M44.8481,131.25H1.2002V18.7539H44.8481V86.8516H24.5991V38.1035h-2.3999v51.1484h22.6489v19.499H22.1992v2.3994h22.6489v20.0996Z"/><path class="c" d="M47.249,18.7539H113.8462v112.4961h-20.9995V38.1035h-2.3994v93.1465h-19.7993V38.1035h-2.3999v93.1465h-20.999V18.7539Z"/><path class="c" d="M116.2471,18.7539h66.5977v112.4961h-20.999V38.1035h-2.4004v93.1465h-19.7988V38.1035h-2.3999v93.1465h-20.9995V18.7539Z"/><path class="c" d="M228.8945,131.25h-43.6484V18.7539h43.6484V86.8516h-20.249V38.1035h-2.3999v51.1484h22.6489v19.499h-22.6489v2.3994h22.6489v20.0996Z"/><path class="c" d="M253.0439,131.25h-21.749V18.7539h20.999v7.6504h22.6489v19.499h-22.6489V111.751h1.3496c.6001,0,1.0503-1.0508,1.0503-2.1006V48.3027h20.249v61.3477c0,12.1494-8.9995,21.5996-21.8989,21.5996Z"/><path class="b" d="M283.043,18.7539h44.3979V102.3008c0,12.1494-8.9995,21.4492-21.8989,21.4492h-1.5v7.5h-20.999V18.7539Zm22.3486,85.4971c.6001,0,1.0503-1.0498,1.0503-2.0996V38.1035h-2.3999V104.251h1.3496Z"/><path class="b" d="M350.6904,123.5996v7.6504h-20.999V18.7539h43.6479V101.8506h-20.249V38.1035h-2.3999V104.251h22.6489v19.3486h-22.6489Z"/><path class="b" d="M419.2393,131.25h-43.6484V18.7539h43.6484V86.8516h-20.249V38.1035h-2.4004v51.1484h22.6494v19.499h-22.6494v2.3994h22.6494v20.0996Z"/><path class="b" d="M442.6387,123.5996v7.6504h-20.999V18.7539h43.6484V101.8506h-20.25V38.1035h-2.3994V104.251h22.6494v19.3486h-22.6494Z"/><path class="b" d="M488.5391,123.5996v7.6504h-20.999V18.7539h43.6484V101.8506h-20.25V38.1035h-2.3994V104.251h22.6494v19.3486h-22.6494Z"/><path class="b" d="M557.0889,131.25h-43.6484V18.7539h43.6484V86.8516h-20.25V38.1035h-2.3994v51.1484h22.6494v19.499h-22.6494v2.3994h22.6494v20.0996Z"/><path class="b" d="M580.4883,108.751v22.499h-20.999V18.7539h44.3975v62.248c0,6.2998-2.3994,11.8496-6.5996,15.749h6.75v34.499h-20.999v-22.499h-2.5498Zm1.3496-19.499c.6006,0,1.0498-1.0508,1.0498-2.1006V38.1035h-2.3994v51.1484h1.3496Z"/><path class="b" d="M606.4365,18.7539h66.5967v112.4961h-20.999V38.1035h-2.3994v93.1465h-19.7998V38.1035h-2.3994v93.1465h-20.999V18.7539Z"/><path class="b" d="M698.834,108.751h-2.3994v22.499h-20.999V18.7539h44.3984v112.4961h-21v-22.499Zm-2.3994-19.499h2.3994V38.1035h-2.3994v51.1484Z"/><path class="b" d="M722.2354,18.7539h44.3975v112.4961h-20.999V38.1035h-2.3994v93.1465h-20.999V18.7539Z"/><path class="b" d="M769.0342,18.7539h44.3975v112.4961h-20.999V38.1035h-2.3994v93.1465h-20.999V18.7539Z"/></svg>